<svg width="329" height="163" viewBox="0 0 329 163" fill="none" xmlns="http://www.w3.org/2000/svg">
<rect x="0.5" y="0.5" width="328" height="162" rx="29.5" fill="#121212" stroke="#262626"/>
<path opacity="0.05" d="M5.48336 69V50.94H39.2234V153H19.0634V69H5.48336ZM51.746 130.88C60.706 123.413 67.846 117.207 73.166 112.26C78.486 107.22 82.9194 101.993 86.466 96.58C90.0127 91.1667 91.786 85.8467 91.786 80.62C91.786 75.86 90.666 72.1267 88.426 69.42C86.186 66.7133 82.7327 65.36 78.066 65.36C73.3994 65.36 69.806 66.9467 67.286 70.12C64.766 73.2 63.4594 77.4467 63.366 82.86H44.326C44.6993 71.66 48.0127 63.1667 54.266 57.38C60.6127 51.5933 68.6394 48.7 78.346 48.7C88.986 48.7 97.1527 51.5467 102.846 57.24C108.539 62.84 111.386 70.26 111.386 79.5C111.386 86.78 109.426 93.7333 105.506 100.36C101.586 106.987 97.106 112.773 92.066 117.72C87.026 122.573 80.446 128.453 72.326 135.36H113.626V151.6H44.466V137.04L51.746 130.88Z" fill="white"/>
</svg>
