<svg width="329" height="163" viewBox="0 0 329 163" fill="none" xmlns="http://www.w3.org/2000/svg">
<rect x="0.5" y="0.5" width="328" height="162" rx="29.5" fill="#1B1B1B" stroke="#262626"/>
<path opacity="0.05" d="M60.5646 76.42C59.6313 72.5 57.9979 69.56 55.6646 67.6C53.4246 65.64 50.1579 64.66 45.8646 64.66C39.4246 64.66 34.6646 67.2733 31.5846 72.5C28.5979 77.6333 27.0579 86.0333 26.9646 97.7C29.2046 93.9667 32.4713 91.0733 36.7646 89.02C41.0579 86.8733 45.7246 85.8 50.7646 85.8C56.8313 85.8 62.1979 87.1067 66.8646 89.72C71.5313 92.3333 75.1713 96.16 77.7846 101.2C80.3979 106.147 81.7046 112.12 81.7046 119.12C81.7046 125.747 80.3513 131.673 77.6446 136.9C75.0313 142.033 71.1579 146.047 66.0246 148.94C60.8913 151.833 54.7779 153.28 47.6846 153.28C37.9779 153.28 30.3246 151.133 24.7246 146.84C19.2179 142.547 15.3446 136.573 13.1046 128.92C10.9579 121.173 9.88461 111.653 9.88461 100.36C9.88461 83.28 12.8246 70.4 18.7046 61.72C24.5846 52.9467 33.8713 48.56 46.5646 48.56C56.3646 48.56 63.9713 51.22 69.3846 56.54C74.7979 61.86 77.9246 68.4867 78.7646 76.42H60.5646ZM46.2846 101.9C41.3379 101.9 37.1846 103.347 33.8246 106.24C30.4646 109.133 28.7846 113.333 28.7846 118.84C28.7846 124.347 30.3246 128.687 33.4046 131.86C36.5779 135.033 41.0113 136.62 46.7046 136.62C51.7446 136.62 55.7113 135.08 58.6046 132C61.5913 128.92 63.0846 124.767 63.0846 119.54C63.0846 114.127 61.6379 109.833 58.7446 106.66C55.9446 103.487 51.7913 101.9 46.2846 101.9Z" fill="white"/>
</svg>
