<svg width="329" height="163" viewBox="0 0 329 163" fill="none" xmlns="http://www.w3.org/2000/svg">
<rect x="0.5" y="0.5" width="328" height="162" rx="29.5" fill="#303030" stroke="#262626"/>
<path opacity="0.05" d="M7.7957 80.82C8.26237 71.4867 11.529 64.3 17.5957 59.26C23.7557 54.1267 31.829 51.56 41.8157 51.56C48.629 51.56 54.4624 52.7733 59.3157 55.2C64.169 57.5333 67.809 60.7533 70.2357 64.86C72.7557 68.8733 74.0157 73.4467 74.0157 78.58C74.0157 84.46 72.4757 89.4533 69.3957 93.56C66.409 97.5733 62.8157 100.28 58.6157 101.68V102.24C64.029 103.92 68.229 106.907 71.2157 111.2C74.2957 115.493 75.8357 121 75.8357 127.72C75.8357 133.32 74.529 138.313 71.9157 142.7C69.3957 147.087 65.6157 150.54 60.5757 153.06C55.629 155.487 49.6557 156.7 42.6557 156.7C32.109 156.7 23.5224 154.04 16.8957 148.72C10.269 143.4 6.76904 135.56 6.3957 125.2H25.4357C25.6224 129.773 27.1624 133.46 30.0557 136.26C33.0424 138.967 37.1024 140.32 42.2357 140.32C46.9957 140.32 50.6357 139.013 53.1557 136.4C55.769 133.693 57.0757 130.24 57.0757 126.04C57.0757 120.44 55.3024 116.427 51.7557 114C48.209 111.573 42.7024 110.36 35.2357 110.36H31.1757V94.26H35.2357C48.489 94.26 55.1157 89.8267 55.1157 80.96C55.1157 76.9467 53.9024 73.82 51.4757 71.58C49.1424 69.34 45.7357 68.22 41.2557 68.22C36.869 68.22 33.4624 69.4333 31.0357 71.86C28.7024 74.1933 27.349 77.18 26.9757 80.82H7.7957Z" fill="white"/>
</svg>
