<svg width="70" height="51" viewBox="0 0 70 51" fill="none" xmlns="http://www.w3.org/2000/svg">
<path fill-rule="evenodd" clip-rule="evenodd" d="M15.3913 6.5795C15.5059 5.7119 15.5978 4.77075 15.7169 3.91498C15.7584 3.61661 15.7889 3.32881 15.8255 3.03057L15.9073 2.36773C15.9223 2.26013 15.9078 2.171 15.9588 2.171H17.5273L17.6493 3.16613C17.6903 3.50125 17.7237 3.82558 17.7705 4.16202C17.8173 4.49797 17.8465 4.82023 17.8932 5.15632C17.94 5.49269 17.9734 5.81702 18.0145 6.15228L18.3815 9.13656C18.4014 9.28796 18.408 9.25793 18.2494 9.25744H17.4144L17.2646 7.70334C17.2568 7.64272 17.2451 7.55913 17.2451 7.48585H16.2182C16.2066 7.62591 16.1813 7.78499 16.1735 7.92622C16.1596 8.17561 16.1158 8.54706 16.0931 8.81631C16.0813 8.95692 16.0607 9.11704 16.0491 9.25744H15.0673L15.1189 8.80116C15.2184 8.08206 15.2953 7.30573 15.3912 6.57971L15.3913 6.5795ZM16.4375 5.30136C16.4161 5.45255 16.4148 5.59254 16.3956 5.7447L16.3086 6.63936H17.1549L16.8985 3.70248C16.8904 3.64297 16.8849 3.53551 16.8841 3.4798C16.8821 3.33525 16.8503 3.1763 16.8503 3.0285H16.6358C16.5895 3.0285 16.601 3.07071 16.6017 3.11859L16.5787 3.46797C16.5455 3.90149 16.498 4.42013 16.4777 4.84514L16.4375 5.30143V5.30136ZM23.4286 5.70277C23.4286 6.29123 23.4436 6.87629 23.4508 7.46357C23.4517 7.5354 23.4627 7.59013 23.4626 7.67753C23.4624 7.84374 23.4658 8.15402 23.5263 8.27955C23.6415 8.51918 23.9016 8.53509 24.1622 8.53509H29.2173C29.3611 8.53509 29.5026 8.52658 29.6109 8.48859C29.6935 8.45953 29.7537 8.41614 29.8059 8.34508C29.9213 8.188 29.9028 7.8847 29.9053 7.68832C29.906 7.61829 29.9172 7.57034 29.917 7.48571C29.9157 6.93234 29.9395 6.3279 29.9395 5.77051C29.9395 5.61371 29.9283 5.49843 29.9283 5.34177L29.917 4.04411C29.9171 3.89651 29.9056 3.77265 29.9057 3.61536C29.906 3.1853 29.8573 2.89321 29.3303 2.89321H24.0268C23.7437 2.89321 23.5578 3.00192 23.4983 3.22232C23.4775 3.2994 23.462 3.53675 23.4625 3.61522C23.4633 3.76559 23.4512 3.8817 23.4514 4.02162C23.4519 4.56828 23.4287 5.15051 23.4287 5.70284L23.4286 5.70277ZM48.7853 5.08401L48.6368 6.63936H49.483L49.4383 6.18764C49.4168 5.79882 49.3444 5.3471 49.3251 4.94679C49.3227 4.89704 49.3152 4.89994 49.3137 4.84534C49.312 4.77871 49.3078 4.68017 49.2977 4.61312L49.1944 3.24951C49.1862 3.19388 49.1784 3.08081 49.1784 3.02857H48.9414C48.9314 3.07147 48.9197 3.2044 48.9186 3.25401L48.8731 3.9419C48.8452 4.29778 48.8219 4.73532 48.7852 5.08408L48.7853 5.08401ZM52.225 3.0285V5.86075H52.5297C53.0833 5.86075 53.2419 5.68824 53.2406 5.17244C53.2404 5.08096 53.2522 5.02505 53.2522 4.9472V3.9309C53.2522 3.85464 53.2403 3.80551 53.2406 3.71687C53.2428 2.96573 52.8616 3.0285 52.225 3.0285ZM18.8587 6.63936H19.7389C19.7913 6.63936 19.7611 6.70662 19.7612 6.7745C19.7612 6.8302 19.7653 6.90072 19.7608 6.95469C19.7352 7.26559 19.7573 7.61428 19.761 7.92609C19.7656 8.31954 19.9375 8.54 20.3468 8.53032C20.8247 8.5189 20.8573 8.26764 20.8995 7.89024C20.9069 7.82464 20.8954 7.75669 20.9042 7.69178C20.9255 7.53643 20.9007 7.34247 20.9012 7.19225L20.8882 6.88916C20.8707 6.72551 20.8233 6.50463 20.7452 6.40028C20.4782 6.04371 19.4716 6.21732 19.0595 5.55842C18.754 5.06989 18.8136 4.29965 18.8136 3.69424C18.8136 3.2055 18.9028 2.76222 19.132 2.50066C19.1932 2.43098 19.2467 2.3741 19.3361 2.32109C19.5601 2.18858 19.868 2.11931 20.1807 2.10319H20.4699C20.6916 2.11461 20.9032 2.15197 21.0749 2.21162C21.2589 2.27556 21.4031 2.38053 21.5141 2.51713C21.9337 3.03396 21.8152 4.02819 21.8152 4.73228H20.8899C20.8899 4.49022 20.9012 4.28657 20.9012 4.04397C20.9012 3.76047 20.935 3.26294 20.7952 3.07804C20.6359 2.8674 20.2444 2.85135 20.0244 2.95286C19.9422 2.99099 19.8903 3.05202 19.8517 3.12994C19.8088 3.21616 19.7899 3.29449 19.7757 3.40362C19.7683 3.46015 19.7712 3.52561 19.7647 3.57315C19.7573 3.62692 19.7616 3.68463 19.7616 3.73943C19.7616 4.12777 19.7311 4.61969 19.8694 4.95177C20.0557 5.39899 20.8619 5.18919 21.4057 5.6497C21.7762 5.96323 21.8604 6.57383 21.8604 7.10201C21.8604 7.94463 21.9208 8.88385 21.1288 9.2025C20.9516 9.27384 20.7252 9.3137 20.491 9.32484H20.2109C19.9899 9.31439 19.7764 9.27938 19.6049 9.22201C19.2657 9.10874 19.0811 8.88814 18.9585 8.55938C18.8053 8.14814 18.83 7.46122 18.8358 6.98867C18.8367 6.91566 18.859 6.77049 18.859 6.63929L18.8587 6.63936ZM22.5351 8.18731C22.5004 7.90221 22.5019 7.56979 22.5034 7.2712C22.504 7.16561 22.492 7.08319 22.492 6.96659C22.4922 6.553 22.4841 6.10716 22.4841 5.71405C22.4841 5.32094 22.492 4.87517 22.492 4.46165C22.492 4.25391 22.5034 4.06002 22.5034 3.84108C22.5034 3.32362 22.5308 2.72008 22.9417 2.38378C23.1848 2.18477 23.5963 2.10333 23.9252 2.10333H29.4317C29.9011 2.10333 30.4181 2.22705 30.6541 2.65255C30.7231 2.77696 30.7756 2.93058 30.8076 3.08572C30.8318 3.20315 30.8498 3.35912 30.8531 3.49163C30.8546 3.54928 30.8651 3.56104 30.8651 3.62629C30.8653 3.72414 30.8651 3.8224 30.8646 3.92017C30.8642 4.01691 30.8761 4.09317 30.8761 4.20209C30.8761 4.59789 30.8874 4.96346 30.8874 5.36433L30.8761 7.24878C30.8761 7.35929 30.8643 7.42558 30.8647 7.53083C30.8659 7.84166 30.8612 8.04524 30.8053 8.35151C30.7509 8.65024 30.6123 8.91658 30.3683 9.08805C30.1565 9.23696 29.7954 9.32491 29.4317 9.32491H23.9252C23.1175 9.32491 22.633 8.99055 22.5352 8.18731H22.5351ZM31.6121 8.37435C31.5339 8.04061 31.5301 7.42129 31.5413 7.04513L31.5635 6.75132C31.567 6.69845 31.5461 6.63929 31.5981 6.63929H32.4782C32.4782 6.72496 32.4664 6.76253 32.4667 6.84218L32.4556 7.24871C32.4562 7.479 32.4528 8.02857 32.5133 8.20654C32.5499 8.31449 32.5924 8.38341 32.6832 8.44292C32.8419 8.54706 33.1772 8.55357 33.3436 8.4751C33.6304 8.34016 33.6179 7.891 33.6179 7.54197C33.6179 7.19647 33.6318 6.64586 33.4409 6.38755C33.3445 6.25746 33.1802 6.22237 33.0062 6.17892C32.8305 6.13498 32.6679 6.09471 32.4959 6.04606C32.2514 5.977 31.9482 5.8256 31.8032 5.61053C31.464 5.10774 31.519 4.37459 31.519 3.75057C31.519 3.40625 31.554 2.97937 31.7145 2.69351C31.7516 2.62729 31.7639 2.59124 31.8218 2.51886C31.9354 2.37707 32.0872 2.27466 32.2792 2.20885C32.4599 2.14685 32.7039 2.10319 32.9408 2.10319C33.4059 2.10319 33.886 2.1337 34.2074 2.4954C34.5889 2.92456 34.5319 3.71853 34.5319 4.31488C34.5319 4.46843 34.5205 4.57983 34.5205 4.73228H33.5953C33.5953 4.4177 33.6405 3.45558 33.5743 3.22993C33.5478 3.13942 33.4991 3.05555 33.4284 3.00345L33.2894 2.92816C33.0806 2.85301 32.6721 2.86727 32.5457 3.15257C32.4497 3.36957 32.4661 3.88378 32.4665 4.1798C32.4666 4.24769 32.4778 4.26166 32.4786 4.32567C32.4816 4.57167 32.4915 4.78812 32.602 5.00353C32.8137 5.41609 33.9621 5.17037 34.3551 5.95839C34.4934 6.23545 34.5657 6.61209 34.5657 7.02292C34.5657 7.46122 34.5832 7.91979 34.5009 8.33477C34.4554 8.56422 34.3903 8.70359 34.2703 8.88281C34.0548 9.20437 33.544 9.32484 33.1439 9.32484C32.3604 9.32484 31.8039 9.19136 31.612 8.37435H31.6121ZM35.4661 8.85333C35.3104 8.62062 35.228 8.28937 35.2199 8.01632L35.1976 5.02567L35.2084 3.63736C35.2093 3.5746 35.2201 3.56547 35.2207 3.50291C35.2241 3.16219 35.315 2.80755 35.5233 2.5529C35.5377 2.53539 35.5462 2.52861 35.5603 2.51104C35.6742 2.36918 35.8445 2.27542 36.0149 2.20954C36.3689 2.07253 37.0708 2.07156 37.3981 2.19349C37.5039 2.23293 37.6897 2.30691 37.7731 2.38254C37.846 2.44862 37.8927 2.48301 37.9534 2.57477C38.0372 2.7014 38.0879 2.80464 38.1329 2.95944C38.2571 3.38625 38.2217 3.97533 38.2217 4.45023C38.2217 4.56004 38.2104 4.62419 38.2104 4.73228H37.2513L37.2626 3.5701C37.2626 3.31601 37.2478 3.09347 37.0461 2.97418C36.9911 2.94165 36.9123 2.91619 36.8423 2.90712C36.5073 2.86374 36.2493 2.95591 36.1854 3.30529L36.1677 3.55848C36.165 3.64664 36.1679 3.74068 36.1679 3.8296C36.1681 3.93242 36.156 3.99615 36.1565 4.08902L36.1454 4.89032C36.1454 5.4448 36.1278 6.23829 36.1567 6.77464L36.1563 7.36178C36.1564 7.43451 36.1686 7.46274 36.1681 7.54176C36.1651 8.07209 36.1122 8.53495 36.7322 8.53495C37.1431 8.53495 37.2963 8.32577 37.2963 7.91439V6.65057H38.2555C38.2555 7.03434 38.281 7.76299 38.2349 8.13084C38.2029 8.38646 38.1401 8.61861 38.0276 8.79244C37.9654 8.88862 37.9117 8.9572 37.824 9.02888C37.7773 9.06715 37.7503 9.08348 37.6981 9.11732C37.5064 9.24153 37.175 9.31183 36.8298 9.32484H36.5955C36.258 9.31218 35.9345 9.24409 35.7434 9.11753C35.6201 9.0358 35.5479 8.97574 35.466 8.85326L35.4661 8.85333ZM38.9551 9.22326V2.20477C38.9551 2.17882 38.963 2.17093 38.989 2.17093H39.9144V5.24012H40.9412V2.17093H41.9003V9.25717H40.9412V6.09761H39.9144V9.25717H38.989C38.963 9.25717 38.9551 9.24928 38.9551 9.22326ZM42.724 9.25717V2.17093H43.6494C43.6753 2.17093 43.6831 2.17882 43.6831 2.20477V9.22326C43.6831 9.24928 43.6753 9.25717 43.6494 9.25717H42.724ZM44.4956 9.25717V2.17093H45.4548V8.39953H47.0345V9.25717H44.4956ZM48.0466 3.91658L48.2495 2.2575C48.2545 2.21169 48.2403 2.17093 48.287 2.17093H49.8555C49.857 2.23881 49.8791 2.35389 49.8872 2.42122L49.9785 3.16488C49.9946 3.3358 50.0164 3.49676 50.0395 3.66823C50.1055 4.16223 50.1541 4.66938 50.2214 5.15632C50.2679 5.49248 50.3015 5.81591 50.3427 6.15214C50.3828 6.47847 50.4277 6.81554 50.4648 7.1472C50.4835 7.3141 50.5024 7.47713 50.526 7.6502C50.5937 8.14724 50.6413 8.64131 50.7096 9.13656C50.7303 9.28623 50.7366 9.25779 50.5776 9.25731H49.7426C49.7312 9.1196 49.7036 8.9572 49.6976 8.81714C49.6915 8.67632 49.6682 8.5106 49.6542 8.37531L49.5734 7.48571H48.5466L48.4806 8.15319C48.4725 8.23042 48.4736 8.2956 48.4627 8.37227L48.422 8.81686C48.4142 8.95803 48.3889 9.11718 48.3773 9.25724H47.3956L47.61 7.47436C47.6428 7.17903 47.6807 6.86861 47.7194 6.5795C47.7595 6.28015 47.7882 5.99471 47.8278 5.69488C47.9047 5.11182 47.9697 4.49908 48.0466 3.91665L48.0466 3.91658ZM51.2659 9.22326V2.20477C51.2659 2.17882 51.2738 2.17093 51.2998 2.17093H52.4846C52.8004 2.17093 53.094 2.18872 53.3463 2.25701C54.0652 2.45208 54.2021 3.12198 54.1997 3.7732C54.1993 3.86599 54.2117 3.91104 54.2111 3.99871C54.2107 4.07767 54.211 4.15683 54.211 4.23578C54.211 4.90472 54.2739 5.78996 53.9016 6.26223C53.8262 6.35814 53.6624 6.51037 53.5453 6.53764C53.5496 6.5903 53.5768 6.66593 53.5917 6.71693C53.6074 6.77069 53.6222 6.82425 53.6394 6.88356C53.6988 7.08893 54.3072 9.19406 54.3125 9.2571H53.297L52.7102 7.00029C52.6964 6.94535 52.6846 6.89691 52.6697 6.83768C52.6507 6.76211 52.6485 6.70689 52.6087 6.70689H52.2249V9.2571H51.2997C51.2737 9.2571 51.2659 9.24921 51.2659 9.22319L51.2659 9.22326ZM57.577 0H11.8028C11.0412 0 10.418 0.623054 10.418 1.38478V10.0435C10.418 10.8051 11.0411 11.4283 11.8028 11.4283H57.577C58.3387 11.4283 58.9619 10.8052 58.9619 10.0435V1.38478C58.9619 0.623123 58.3387 0 57.577 0Z" fill="#7A7A7A"/>
<path d="M12.4883 40.0352H15.4947C16.2656 40.0352 16.651 40.4207 16.651 41.1916V44.7068C16.651 48.7154 14.6467 50.7197 10.6381 50.7197H6.01284C2.00424 50.7197 0 48.7154 0 44.7068V19.7301C0 15.7215 2.0043 13.7173 6.01284 13.7173H10.6381C14.6467 13.7173 16.651 15.7216 16.651 19.7301V23.2454C16.651 24.0163 16.2656 24.4017 15.4947 24.4017H12.4883C11.7174 24.4017 11.332 24.0163 11.332 23.2454V22.1816C11.332 20.8556 11.1623 20 10.8232 19.6146C10.484 19.2291 9.65139 19.0364 8.32549 19.0364C7.1845 19.0364 6.39827 19.2137 5.96655 19.5683C5.53483 19.9229 5.319 20.794 5.319 22.1816V42.2554C5.319 43.6429 5.53483 44.5141 5.96655 44.8687C6.39821 45.2232 7.1845 45.4005 8.32549 45.4005C8.91132 45.4005 9.33529 45.3851 9.59741 45.3543C9.85953 45.3235 10.1525 45.2156 10.4762 45.0305C10.8 44.8456 11.0236 44.5295 11.1469 44.0823C11.2702 43.6352 11.3319 43.0262 11.3319 42.2554V41.1916C11.3319 40.4207 11.7174 40.0352 12.4883 40.0352ZM18.5015 49.1009V14.8736C18.5015 14.1027 18.887 13.7173 19.6578 13.7173H22.6642C23.4351 13.7173 23.8205 14.1027 23.8205 14.8736V44.013C23.8205 44.5371 23.9208 44.8995 24.1212 45.0999C24.3217 45.3004 24.6839 45.4006 25.2082 45.4006H30.3423C31.1131 45.4006 31.4985 45.786 31.4985 46.5569V49.5634C31.4985 50.3342 31.1131 50.7197 30.3423 50.7197H20.1203C19.5036 50.7197 19.0796 50.604 18.8484 50.3728C18.6171 50.1415 18.5015 49.7175 18.5015 49.1009ZM44.2647 41.7928V14.8736C44.2647 14.1027 44.6502 13.7173 45.421 13.7173H48.4274C49.1984 13.7173 49.5838 14.1027 49.5838 14.8736V44.7068C49.5838 48.7154 47.5795 50.7197 43.5709 50.7197H38.8994C34.8907 50.7197 32.8865 48.7154 32.8865 44.7068V14.8736C32.8865 14.1027 33.2719 13.7173 34.0428 13.7173H37.0492C37.8201 13.7173 38.2056 14.1027 38.2056 14.8736V41.7928C38.2056 43.2113 38.4214 44.1671 38.8531 44.6605C39.2848 45.1539 40.0248 45.4006 41.0733 45.4006H41.3507C42.4608 45.4006 43.224 45.1616 43.6403 44.6837C44.0565 44.2058 44.2647 43.2422 44.2647 41.7928ZM52.3594 49.1009V15.3362C52.3594 14.7195 52.4751 14.2954 52.7063 14.0642C52.9376 13.833 53.3616 13.7173 53.9783 13.7173H62.5814C66.59 13.7173 68.5942 15.7216 68.5942 19.7301V27.8707C68.5942 28.6108 68.3321 29.505 67.8078 30.5534C67.6537 30.8309 67.6845 31.093 67.9004 31.3397C68.8871 32.3881 69.3805 33.6215 69.3805 35.0399V44.7068C69.3805 48.7154 67.3762 50.7197 63.3676 50.7197H53.9783C52.899 50.7197 52.3594 50.1801 52.3594 49.1009ZM61.1937 34.1149H59.0661C58.5419 34.1149 58.1796 34.2151 57.9791 34.4156C57.7787 34.616 57.6784 34.9783 57.6784 35.5025V44.013C57.6784 44.5372 57.7787 44.8996 57.9791 45.1C58.1796 45.3005 58.5418 45.4007 59.0661 45.4007H60.6849C61.9184 45.4007 62.7895 45.2157 63.2982 44.8456C63.8071 44.4756 64.0613 43.6122 64.0613 42.2554V37.2601C64.0613 35.9959 63.8378 35.1633 63.3908 34.7624C62.9436 34.3616 62.2113 34.1458 61.1937 34.1149ZM59.8986 19.0364H59.0661C58.5419 19.0364 58.1796 19.1366 57.9791 19.3371C57.7787 19.5375 57.6784 19.8998 57.6784 20.424V27.4082C57.6784 27.9016 57.7787 28.2562 57.9791 28.4721C58.1796 28.6879 58.5418 28.7958 59.0661 28.7958H59.8986C61.1321 28.7958 62.0031 28.6108 62.5119 28.2407C63.0208 27.8707 63.2751 27.0073 63.2751 25.6505V22.1815C63.2751 20.8248 63.0207 19.9614 62.5119 19.5913C62.0031 19.2213 61.132 19.0364 59.8986 19.0364Z" fill="#7A7A7A"/>
</svg>
