<svg width="22" height="22" viewBox="0 0 22 22" fill="none" xmlns="http://www.w3.org/2000/svg">
<g clip-path="url(#clip0_1_409)">
<path fill-rule="evenodd" clip-rule="evenodd" d="M6.45662 0.135002C4.66595 0.215797 3.11389 0.653594 1.86064 1.90155C0.603014 3.15607 0.170656 4.71428 0.0896592 6.48632C0.03931 7.59235 -0.255106 15.9481 0.598638 18.1394C1.17437 19.6178 2.30828 20.7544 3.80015 21.332C4.49627 21.6028 5.29093 21.7861 6.45662 21.8396C16.2035 22.2807 19.8166 22.0405 21.3402 18.1394C21.6105 17.445 21.7966 16.6511 21.8481 15.4883C22.2935 5.71638 21.7758 3.59826 20.0771 1.90155C18.7297 0.557509 17.1448 -0.357413 6.45662 0.135002ZM6.54635 19.8743C5.47917 19.8263 4.90017 19.6484 4.5138 19.4989C3.54184 19.1211 2.81179 18.394 2.43636 17.4278C1.7862 15.7627 2.00183 7.85457 2.05984 6.57494C2.11676 5.32152 2.37069 4.17597 3.25508 3.29159C4.34962 2.19976 5.76376 1.66466 15.3924 2.09921C16.649 2.15598 17.7972 2.40939 18.6837 3.29159C19.7783 4.38342 20.3212 5.80844 19.879 15.4002C19.8308 16.4647 19.6524 17.0424 19.5025 17.4278C18.5119 19.9663 16.233 20.3187 6.54635 19.8743ZM15.4986 5.15859C15.4986 5.88138 16.0864 6.46913 16.8121 6.46913C17.5378 6.46913 18.1266 5.88138 18.1266 5.15859C18.1266 4.4358 17.5378 3.84858 16.8121 3.84858C16.0864 3.84858 15.4986 4.4358 15.4986 5.15859ZM5.34893 10.9868C5.34893 14.0832 7.86529 16.5936 10.9694 16.5936C14.0735 16.5936 16.5899 14.0832 16.5899 10.9868C16.5899 7.89033 14.0735 5.38149 10.9694 5.38149C7.86529 5.38149 5.34893 7.89033 5.34893 10.9868ZM7.3213 10.9868C7.3213 8.9778 8.95436 7.34784 10.9694 7.34784C12.9845 7.34784 14.6175 8.9778 14.6175 10.9868C14.6175 12.9968 12.9845 14.6273 10.9694 14.6273C8.95436 14.6273 7.3213 12.9968 7.3213 10.9868Z" fill="#C8C8C8"/>
</g>
<defs>
<clipPath id="clip0_1_409">
<rect width="22" height="22" fill="white"/>
</clipPath>
</defs>
</svg>
