<svg width="23" height="22" viewBox="0 0 23 22" fill="none" xmlns="http://www.w3.org/2000/svg">
<g clip-path="url(#clip0_1_407)">
<path d="M15.9001 6.9024C15.9044 6.9024 15.9102 6.9024 15.9159 6.9024C16.0661 6.9024 16.2056 6.94709 16.3199 7.02409L16.3177 7.02272C16.4011 7.09215 16.4571 7.18978 16.4708 7.29978V7.30184C16.4852 7.38572 16.4931 7.48197 16.4931 7.58028C16.4931 7.62497 16.4916 7.66897 16.488 7.71297V7.70678C16.3263 9.33547 15.6248 13.2852 15.2683 15.1084C15.1174 15.8805 14.8205 16.139 14.533 16.1637C13.9085 16.2194 13.4341 15.7691 12.8289 15.3896C11.8816 14.7949 11.3461 14.425 10.4268 13.8455C9.3638 13.1765 10.0531 12.8073 10.6583 12.2065C10.8171 12.0483 13.5706 9.6524 13.6245 9.43515C13.6274 9.42209 13.6289 9.40765 13.6289 9.39253C13.6289 9.3389 13.608 9.29009 13.5742 9.25296C13.5369 9.22959 13.4901 9.21653 13.4413 9.21653C13.4089 9.21653 13.378 9.22272 13.3493 9.23303L13.3507 9.23234C13.2558 9.25296 11.7426 10.2095 8.81108 12.102C8.49123 12.3433 8.0873 12.4959 7.64742 12.5138H7.64311C7.01995 12.4416 6.4543 12.3089 5.91739 12.1198L5.97058 12.1363C5.29639 11.926 4.76092 11.8153 4.80692 11.4592C4.83136 11.274 5.09826 11.0845 5.60761 10.8906C8.74519 9.58296 10.8375 8.72107 11.8845 8.3049C13.0395 7.71847 14.3785 7.23584 15.7865 6.92303L15.8994 6.90171L15.9001 6.9024ZM11.4496 0.70459C5.48255 0.71834 0.650391 5.34865 0.650391 11.0583C0.650391 16.7763 5.4962 21.4121 11.4748 21.4121C17.4533 21.4121 22.2991 16.777 22.2991 11.0583C22.2991 5.34865 17.467 0.71834 11.5014 0.70459H11.4999C11.4832 0.70459 11.4664 0.70459 11.4496 0.70459Z" fill="#C8C8C8"/>
</g>
<defs>
<clipPath id="clip0_1_407">
<rect width="23" height="22" fill="white"/>
</clipPath>
</defs>
</svg>
