<svg width="95" height="74" viewBox="0 0 95 74" fill="none" xmlns="http://www.w3.org/2000/svg">
<path fill-rule="evenodd" clip-rule="evenodd" d="M24.3398 14.7947C24.4764 13.7609 24.5859 12.6395 24.7278 11.6198C24.7773 11.2643 24.8137 10.9214 24.8572 10.5661L24.9546 9.77627C24.9725 9.64806 24.9552 9.54186 25.0161 9.54186H26.885L27.0303 10.7276C27.0792 11.1269 27.119 11.5133 27.1748 11.9142C27.2305 12.3145 27.2653 12.6985 27.321 13.0989C27.3767 13.4997 27.4165 13.8861 27.4655 14.2856L27.9027 17.8414C27.9265 18.0218 27.9343 17.986 27.7453 17.9855H26.7504L26.5719 16.1337C26.5627 16.0615 26.5487 15.9619 26.5487 15.8746H25.3252C25.3113 16.0415 25.2812 16.231 25.2719 16.3993C25.2553 16.6965 25.2032 17.139 25.1761 17.4599C25.162 17.6274 25.1374 17.8182 25.1236 17.9855H23.9539L24.0153 17.4418C24.1339 16.585 24.2255 15.66 24.3397 14.7949L24.3398 14.7947ZM25.5864 13.2717C25.5609 13.4519 25.5594 13.6187 25.5365 13.8L25.4329 14.866H26.4412L26.1357 11.3666C26.1261 11.2957 26.1195 11.1677 26.1185 11.1013C26.1162 10.9291 26.0783 10.7397 26.0783 10.5636H25.8228C25.7675 10.5636 25.7812 10.6139 25.7821 10.6709L25.7547 11.0872C25.7151 11.6038 25.6585 12.2217 25.6344 12.7281L25.5864 13.2718V13.2717ZM33.9165 13.75C33.9165 14.4512 33.9343 15.1483 33.9428 15.848C33.944 15.9336 33.9571 15.9988 33.9569 16.103C33.9567 16.301 33.9608 16.6707 34.0329 16.8203C34.1702 17.1058 34.48 17.1248 34.7905 17.1248H40.8138C40.9851 17.1248 41.1537 17.1146 41.2827 17.0694C41.3811 17.0347 41.4529 16.983 41.5151 16.8984C41.6526 16.7112 41.6306 16.3498 41.6335 16.1158C41.6344 16.0324 41.6477 15.9753 41.6475 15.8744C41.646 15.2151 41.6743 14.4949 41.6743 13.8307C41.6743 13.6439 41.661 13.5065 41.661 13.3199L41.6475 11.7737C41.6476 11.5978 41.6338 11.4502 41.634 11.2628C41.6343 10.7504 41.5763 10.4024 40.9484 10.4024H34.6292C34.2919 10.4024 34.0704 10.5319 33.9995 10.7945C33.9747 10.8864 33.9563 11.1692 33.9568 11.2627C33.9578 11.4418 33.9433 11.5802 33.9436 11.7469C33.9442 12.3983 33.9165 13.092 33.9165 13.7501L33.9165 13.75ZM64.1293 13.0128L63.9525 14.866H64.9607L64.9075 14.3277C64.8818 13.8645 64.7956 13.3262 64.7725 12.8493C64.7697 12.79 64.7607 12.7934 64.759 12.7284C64.7569 12.649 64.752 12.5316 64.7399 12.4517L64.6168 10.8269C64.607 10.7606 64.5978 10.6259 64.5978 10.5637H64.3153C64.3034 10.6148 64.2895 10.7732 64.2882 10.8323L64.2339 11.6519C64.2007 12.076 64.1729 12.5973 64.1292 13.0128L64.1293 13.0128ZM68.2278 10.5636V13.9383H68.5909C69.2505 13.9383 69.4394 13.7327 69.4379 13.1181C69.4377 13.0091 69.4517 12.9425 69.4518 12.8498V11.6388C69.4517 11.5479 69.4376 11.4894 69.4379 11.3838C69.4405 10.4888 68.9864 10.5636 68.2278 10.5636ZM28.4714 14.866H29.5201C29.5825 14.866 29.5466 14.9461 29.5467 15.027C29.5467 15.0934 29.5516 15.1774 29.5462 15.2417C29.5157 15.6122 29.5421 16.0276 29.5464 16.3991C29.552 16.8679 29.7568 17.1306 30.2444 17.1191C30.8139 17.1055 30.8527 16.8061 30.903 16.3564C30.9117 16.2783 30.898 16.1973 30.9086 16.12C30.934 15.9349 30.9044 15.7038 30.905 15.5248L30.8896 15.1636C30.8686 14.9686 30.8122 14.7055 30.7191 14.5811C30.401 14.1563 29.2016 14.3631 28.7106 13.578C28.3466 12.9959 28.4176 12.0782 28.4176 11.3568C28.4176 10.7745 28.5239 10.2463 28.797 9.93465C28.8699 9.85163 28.9337 9.78385 29.0402 9.72069C29.307 9.5628 29.6739 9.48027 30.0465 9.46106H30.3911C30.6552 9.47466 30.9074 9.51919 31.1119 9.59026C31.3312 9.66644 31.503 9.79152 31.6352 9.95428C32.1353 10.5701 31.9941 11.7547 31.9941 12.5937H30.8915C30.8915 12.3053 30.9051 12.0626 30.9051 11.7735C30.9051 11.4357 30.9453 10.8429 30.7787 10.6226C30.5889 10.3716 30.1224 10.3525 29.8603 10.4735C29.7623 10.5189 29.7005 10.5916 29.6545 10.6845C29.6034 10.7872 29.5808 10.8805 29.5639 11.0105C29.5552 11.0779 29.5586 11.1559 29.5508 11.2125C29.542 11.2766 29.5471 11.3454 29.5471 11.4107C29.5471 11.8734 29.5108 12.4595 29.6756 12.8552C29.8975 13.3881 30.8581 13.1381 31.5061 13.6868C31.9476 14.0604 32.0479 14.7879 32.0479 15.4172C32.0479 16.4212 32.1199 17.5403 31.1762 17.92C30.965 18.005 30.6953 18.0525 30.4162 18.0658H30.0825C29.8192 18.0533 29.5648 18.0116 29.3604 17.9433C28.9563 17.8083 28.7363 17.5454 28.5903 17.1537C28.4077 16.6637 28.4371 15.8452 28.4441 15.2822C28.4452 15.1952 28.4716 15.0222 28.4716 14.8659L28.4714 14.866ZM32.8519 16.7104C32.8105 16.3707 32.8123 15.9746 32.8141 15.6188C32.8148 15.493 32.8005 15.3948 32.8005 15.2559C32.8007 14.7631 32.791 14.2319 32.791 13.7635C32.791 13.2951 32.8005 12.7639 32.8005 12.2712C32.8005 12.0237 32.814 11.7927 32.814 11.5318C32.814 10.9152 32.8467 10.1961 33.3363 9.79539C33.6259 9.55827 34.1163 9.46123 34.5081 9.46123H41.0692C41.6286 9.46123 42.2446 9.60865 42.5257 10.1156C42.608 10.2639 42.6705 10.4469 42.7086 10.6318C42.7375 10.7717 42.7589 10.9575 42.7628 11.1154C42.7646 11.1841 42.7771 11.1981 42.7772 11.2759C42.7774 11.3924 42.7772 11.5095 42.7766 11.626C42.776 11.7413 42.7902 11.8322 42.7902 11.9619C42.7902 12.4335 42.8037 12.8691 42.8037 13.3468L42.7902 15.5921C42.7903 15.7238 42.7762 15.8028 42.7767 15.9282C42.7781 16.2985 42.7725 16.5411 42.7059 16.906C42.6411 17.262 42.4759 17.5793 42.1852 17.7836C41.9329 17.9611 41.5026 18.0659 41.0692 18.0659H34.5081C33.5458 18.0659 32.9684 17.6675 32.8519 16.7104H32.8519ZM43.6672 16.9332C43.574 16.5356 43.5695 15.7977 43.5829 15.3495L43.6093 14.9994C43.6135 14.9364 43.5886 14.8659 43.6505 14.8659H44.6992C44.6992 14.968 44.6851 15.0127 44.6855 15.1076L44.6723 15.592C44.673 15.8664 44.6689 16.5212 44.7411 16.7333C44.7847 16.8619 44.8353 16.944 44.9434 17.015C45.1325 17.139 45.532 17.1468 45.7304 17.0533C46.072 16.8925 46.0571 16.3573 46.0571 15.9415C46.0571 15.5298 46.0738 14.8737 45.8462 14.5659C45.7314 14.4109 45.5356 14.3691 45.3283 14.3174C45.119 14.265 44.9252 14.217 44.7203 14.1591C44.4289 14.0768 44.0677 13.8964 43.8949 13.6401C43.4908 13.041 43.5563 12.1675 43.5563 11.4239C43.5563 11.0137 43.598 10.505 43.7892 10.1644C43.8334 10.0855 43.848 10.0426 43.9171 9.95634C44.0524 9.7874 44.2333 9.66537 44.4621 9.58696C44.6774 9.51309 44.9681 9.46106 45.2504 9.46106C45.8046 9.46106 46.3766 9.49742 46.7595 9.92839C47.2141 10.4397 47.1462 11.3858 47.1462 12.0963C47.1462 12.2793 47.1327 12.412 47.1327 12.5937H46.0302C46.0302 12.2188 46.0841 11.0725 46.0052 10.8036C45.9737 10.6957 45.9156 10.5958 45.8314 10.5337L45.6657 10.444C45.4169 10.3545 44.9303 10.3715 44.7796 10.7114C44.6652 10.97 44.6847 11.5827 44.6852 11.9354C44.6854 12.0163 44.6988 12.0329 44.6997 12.1092C44.7032 12.4023 44.715 12.6602 44.8467 12.9169C45.0989 13.4084 46.4673 13.1157 46.9355 14.0546C47.1003 14.3847 47.1864 14.8335 47.1864 15.323C47.1864 15.8452 47.2074 16.3916 47.1093 16.8861C47.055 17.1595 46.9774 17.3255 46.8345 17.5391C46.5777 17.9222 45.9691 18.0658 45.4924 18.0658C44.5588 18.0658 43.8957 17.9067 43.6671 16.9332H43.6672ZM48.2594 17.504C48.0738 17.2267 47.9756 16.832 47.9659 16.5067L47.9394 12.9432L47.9523 11.2891C47.9533 11.2143 47.9662 11.2034 47.9669 11.1289C47.9709 10.7229 48.0793 10.3003 48.3275 9.9969C48.3446 9.97604 48.3548 9.96796 48.3716 9.94702C48.5073 9.778 48.7102 9.66628 48.9132 9.58779C49.335 9.42453 50.1714 9.42338 50.5613 9.56866C50.6874 9.61565 50.9088 9.70379 51.0082 9.79391C51.095 9.87265 51.1507 9.91363 51.223 10.023C51.3228 10.1738 51.3832 10.2969 51.4368 10.4813C51.5849 10.9898 51.5427 11.6917 51.5427 12.2576C51.5427 12.3884 51.5292 12.4649 51.5292 12.5937H50.3864L50.3999 11.2089C50.3999 10.9062 50.3823 10.641 50.1419 10.4989C50.0764 10.4601 49.9825 10.4298 49.899 10.419C49.5 10.3673 49.1925 10.4771 49.1164 10.8934L49.0952 11.1951C49.0921 11.3001 49.0956 11.4122 49.0956 11.5181C49.0957 11.6406 49.0814 11.7166 49.082 11.8272L49.0688 12.782C49.0688 13.4426 49.0477 14.3881 49.0822 15.0272L49.0817 15.7268C49.0819 15.8134 49.0963 15.8471 49.0958 15.9412C49.0922 16.5731 49.0291 17.1246 49.7679 17.1246C50.2574 17.1246 50.44 16.8754 50.44 16.3852V14.8793H51.5829C51.5829 15.3366 51.6133 16.2048 51.5584 16.6431C51.5203 16.9477 51.4455 17.2243 51.3114 17.4314C51.2373 17.546 51.1733 17.6277 51.0688 17.7131C51.0131 17.7587 50.9809 17.7782 50.9188 17.8185C50.6904 17.9665 50.2955 18.0503 49.8842 18.0658H49.605C49.2028 18.0507 48.8175 17.9696 48.5897 17.8188C48.4428 17.7214 48.3567 17.6498 48.2592 17.5039L48.2594 17.504ZM52.4166 17.9447V9.5821C52.4166 9.55118 52.426 9.54178 52.457 9.54178H53.5595V13.1988H54.783V9.54178H55.9257V17.9851H54.783V14.2205H53.5595V17.9851H52.457C52.426 17.9851 52.4166 17.9757 52.4166 17.9447ZM56.9072 17.9851V9.54178H58.0098C58.0407 9.54178 58.05 9.55118 58.05 9.5821V17.9447C58.05 17.9757 58.0407 17.9851 58.0098 17.9851H56.9072ZM59.0181 17.9851V9.54178H60.161V16.9633H62.0433V17.9851H59.0181ZM63.2492 11.6217L63.491 9.64492C63.4969 9.59034 63.48 9.54178 63.5357 9.54178H65.4045C65.4063 9.62266 65.4326 9.75978 65.4423 9.84L65.5511 10.7261C65.5703 10.9297 65.5963 11.1215 65.6237 11.3258C65.7025 11.9144 65.7603 12.5187 65.8405 13.0989C65.8959 13.4995 65.936 13.8848 65.985 14.2855C66.0327 14.6743 66.0863 15.0759 66.1305 15.4711C66.1528 15.6699 66.1753 15.8642 66.2034 16.0704C66.2841 16.6626 66.3408 17.2513 66.4222 17.8414C66.4469 18.0198 66.4543 17.9859 66.2649 17.9853H65.27C65.2564 17.8212 65.2235 17.6277 65.2163 17.4608C65.2092 17.2931 65.1813 17.0956 65.1646 16.9344L65.0684 15.8744H63.8449L63.7663 16.6697C63.7566 16.7618 63.758 16.8394 63.745 16.9308L63.6965 17.4605C63.6872 17.6287 63.657 17.8183 63.6432 17.9852H62.4735L62.729 15.8609C62.7681 15.509 62.8132 15.1391 62.8593 14.7947C62.9071 14.438 62.9413 14.0979 62.9885 13.7406C63.0801 13.0459 63.1576 12.3158 63.2492 11.6218L63.2492 11.6217ZM67.0851 17.9447V9.5821C67.0851 9.55118 67.0945 9.54178 67.1254 9.54178H68.5372C68.9135 9.54178 69.2633 9.56297 69.5638 9.64435C70.4204 9.87677 70.5836 10.675 70.5807 11.4509C70.5802 11.5615 70.5949 11.6151 70.5943 11.7196C70.5938 11.8137 70.5942 11.908 70.5942 12.0021C70.5942 12.7991 70.6691 13.8539 70.2255 14.4166C70.1356 14.5309 69.9405 14.7123 69.801 14.7448C69.8061 14.8075 69.8386 14.8976 69.8563 14.9584C69.875 15.0225 69.8926 15.0863 69.9131 15.1569C69.9838 15.4017 70.7088 17.9099 70.7151 17.9851H69.5051L68.806 15.296C68.7895 15.2306 68.7754 15.1729 68.7577 15.1023C68.735 15.0122 68.7324 14.9465 68.685 14.9465H68.2277V17.9851H67.1253C67.0944 17.9851 67.085 17.9757 67.085 17.9447L67.0851 17.9447ZM74.6048 6.95508H20.0641C19.1566 6.95508 18.4141 7.69746 18.4141 8.60507V18.922C18.4141 19.8295 19.1565 20.5721 20.0641 20.5721H74.6048C75.5123 20.5721 76.2549 19.8296 76.2549 18.922V8.60507C76.2549 7.69754 75.5124 6.95508 74.6048 6.95508Z" fill="white"/>
<path d="M20.88 54.6578H24.4622C25.3807 54.6578 25.8399 55.1171 25.8399 56.0356V60.2241C25.8399 65.0004 23.4518 67.3885 18.6755 67.3885H13.1644C8.38808 67.3885 6 65.0003 6 60.2241V30.464C6 25.6876 8.38816 23.2996 13.1644 23.2996H18.6755C23.4518 23.2996 25.8399 25.6877 25.8399 30.464V34.6525C25.8399 35.571 25.3807 36.0302 24.4622 36.0302H20.88C19.9615 36.0302 19.5022 35.571 19.5022 34.6525V33.3849C19.5022 31.805 19.3001 30.7855 18.896 30.3263C18.4918 29.867 17.4998 29.6374 15.92 29.6374C14.5604 29.6374 13.6236 29.8486 13.1092 30.2712C12.5948 30.6937 12.3377 31.7316 12.3377 33.3849V57.3031C12.3377 58.9564 12.5948 59.9945 13.1092 60.4169C13.6236 60.8394 14.5604 61.0506 15.92 61.0506C16.618 61.0506 17.1231 61.0323 17.4355 60.9956C17.7478 60.9589 18.0969 60.8303 18.4826 60.6098C18.8684 60.3894 19.1348 60.0128 19.2817 59.48C19.4286 58.9473 19.5022 58.2216 19.5022 57.3031V56.0356C19.5022 55.1171 19.9615 54.6578 20.88 54.6578ZM28.0449 65.4597V24.6773C28.0449 23.7588 28.5041 23.2996 29.4226 23.2996H33.0048C33.9233 23.2996 34.3825 23.7588 34.3825 24.6773V59.3974C34.3825 60.0219 34.502 60.4537 34.7408 60.6925C34.9797 60.9313 35.4113 61.0507 36.0359 61.0507H42.1533C43.0718 61.0507 43.531 61.51 43.531 62.4285V66.0107C43.531 66.9292 43.0718 67.3885 42.1533 67.3885H29.9737C29.2389 67.3885 28.7337 67.2507 28.4581 66.9752C28.1826 66.6996 28.0449 66.1945 28.0449 65.4597ZM58.7421 56.752V24.6773C58.7421 23.7588 59.2014 23.2996 60.1199 23.2996H63.7021C64.6206 23.2996 65.0799 23.7588 65.0799 24.6773V60.2241C65.0799 65.0004 62.6917 67.3885 57.9155 67.3885H52.3492C47.5729 67.3885 45.1848 65.0003 45.1848 60.2241V24.6773C45.1848 23.7588 45.6441 23.2996 46.5625 23.2996H50.1447C51.0632 23.2996 51.5226 23.7588 51.5226 24.6773V56.752C51.5226 58.4422 51.7797 59.5811 52.2941 60.1689C52.8084 60.7568 53.6903 61.0507 54.9395 61.0507H55.2701C56.5927 61.0507 57.5021 60.766 57.9981 60.1965C58.494 59.6271 58.7421 58.479 58.7421 56.752ZM68.3871 65.4597V25.2285C68.3871 24.4937 68.5249 23.9884 68.8004 23.7129C69.076 23.4374 69.5812 23.2996 70.316 23.2996H80.5667C85.343 23.2996 87.7311 25.6877 87.7311 30.464V40.1636C87.7311 41.0454 87.4188 42.1108 86.7941 43.36C86.6104 43.6907 86.6472 44.0031 86.9044 44.297C88.0801 45.5461 88.668 47.0158 88.668 48.7058V60.2241C88.668 65.0004 86.2798 67.3885 81.5036 67.3885H70.316C69.0301 67.3885 68.3871 66.7456 68.3871 65.4597ZM78.9132 47.6036H76.3782C75.7536 47.6036 75.3219 47.723 75.083 47.9619C74.8443 48.2007 74.7248 48.6324 74.7248 49.257V59.3974C74.7248 60.022 74.8443 60.4538 75.083 60.6926C75.3219 60.9314 75.7535 61.0508 76.3782 61.0508H78.3071C79.7767 61.0508 80.8147 60.8304 81.4209 60.3895C82.0271 59.9486 82.3301 58.9198 82.3301 57.3032V51.3512C82.3301 49.8449 82.0638 48.8528 81.5311 48.3752C80.9983 47.8976 80.1257 47.6404 78.9132 47.6036ZM77.3702 29.6374H76.3782C75.7536 29.6374 75.3219 29.7568 75.083 29.9956C74.8443 30.2344 74.7248 30.6661 74.7248 31.2908V39.6125C74.7248 40.2004 74.8443 40.6229 75.083 40.8801C75.3219 41.1373 75.7535 41.2658 76.3782 41.2658H77.3702C78.8399 41.2658 79.8777 41.0454 80.4839 40.6045C81.0902 40.1636 81.3932 39.1348 81.3932 37.5182V33.3848C81.3932 31.7682 81.0902 30.7395 80.4839 30.2986C79.8777 29.8577 78.8398 29.6374 77.3702 29.6374Z" fill="white"/>
</svg>
