<svg width="59" height="89" viewBox="0 0 59 89" fill="none" xmlns="http://www.w3.org/2000/svg">
<path d="M9.13109 71.4C16.8111 64.76 22.8511 59.32 27.2511 55.08C31.7311 50.76 35.4511 46.28 38.4111 41.64C41.3711 37 42.8511 32.36 42.8511 27.72C42.8511 22.92 41.6911 19.16 39.3711 16.44C37.1311 13.72 33.5711 12.36 28.6911 12.36C23.9711 12.36 20.2911 13.88 17.6511 16.92C15.0911 19.88 13.7311 23.88 13.5711 28.92H0.371094C0.611094 19.8 3.33109 12.84 8.53109 8.04C13.8111 3.16 20.4911 0.719998 28.5711 0.719998C37.2911 0.719998 44.0911 3.12 48.9711 7.92C53.9311 12.72 56.4111 19.12 56.4111 27.12C56.4111 32.88 54.9311 38.44 51.9711 43.8C49.0911 49.08 45.6111 53.84 41.5311 58.08C37.5311 62.24 32.4111 67.08 26.1711 72.6L20.7711 77.4H58.8111V88.8H0.491094V78.84L9.13109 71.4Z" fill="#E0E0E0"/>
</svg>
