<svg width="59" height="91" viewBox="0 0 59 91" fill="none" xmlns="http://www.w3.org/2000/svg">
<path d="M1.335 24.12C1.815 16.68 4.655 10.88 9.855 6.72C15.135 2.56 21.855 0.479994 30.015 0.479994C35.615 0.479994 40.455 1.48 44.535 3.48C48.615 5.48 51.695 8.19999 53.775 11.64C55.855 15.08 56.895 18.96 56.895 23.28C56.895 28.24 55.575 32.48 52.935 36C50.295 39.52 47.135 41.88 43.455 43.08V43.56C48.175 45 51.855 47.64 54.495 51.48C57.135 55.24 58.455 60.08 58.455 66C58.455 70.72 57.375 74.92 55.215 78.6C53.055 82.28 49.855 85.2 45.615 87.36C41.375 89.44 36.295 90.48 30.375 90.48C21.735 90.48 14.615 88.28 9.015 83.88C3.495 79.4 0.535 73 0.135 64.68H13.335C13.655 68.92 15.295 72.4 18.255 75.12C21.215 77.76 25.215 79.08 30.255 79.08C35.135 79.08 38.895 77.76 41.535 75.12C44.175 72.4 45.495 68.92 45.495 64.68C45.495 59.08 43.695 55.12 40.095 52.8C36.575 50.4 31.135 49.2 23.775 49.2H20.655V37.92H23.895C30.375 37.84 35.295 36.76 38.655 34.68C42.095 32.6 43.815 29.32 43.815 24.84C43.815 21 42.575 17.96 40.095 15.72C37.615 13.4 34.095 12.24 29.535 12.24C25.055 12.24 21.575 13.4 19.095 15.72C16.615 17.96 15.135 20.76 14.655 24.12H1.335Z" fill="#E0E0E0"/>
</svg>
