<svg width="61" height="88" viewBox="0 0 61 88" fill="none" xmlns="http://www.w3.org/2000/svg">
<path d="M54.7797 12.28H14.5797V36.16C16.2597 33.92 18.7397 32.04 22.0197 30.52C25.3797 29 28.9397 28.24 32.6997 28.24C39.4197 28.24 44.8597 29.68 49.0197 32.56C53.2597 35.44 56.2597 39.08 58.0197 43.48C59.8597 47.88 60.7797 52.52 60.7797 57.4C60.7797 63.32 59.6197 68.6 57.2997 73.24C55.0597 77.8 51.6597 81.4 47.0997 84.04C42.6197 86.68 37.0997 88 30.5397 88C21.8197 88 14.8197 85.84 9.53969 81.52C4.25969 77.2 1.09969 71.48 0.0596876 64.36H13.3797C14.2597 68.12 16.2197 71.12 19.2597 73.36C22.2997 75.52 26.0997 76.6 30.6597 76.6C36.3397 76.6 40.5797 74.88 43.3797 71.44C46.2597 68 47.6997 63.44 47.6997 57.76C47.6997 52 46.2597 47.6 43.3797 44.56C40.4997 41.44 36.2597 39.88 30.6597 39.88C26.7397 39.88 23.4197 40.88 20.6997 42.88C18.0597 44.8 16.1397 47.44 14.9397 50.8H1.97969V0.279999H54.7797V12.28Z" fill="#E0E0E0"/>
</svg>
