<svg width="62" height="90" viewBox="0 0 62 90" fill="none" xmlns="http://www.w3.org/2000/svg">
<path d="M46.2439 22.8C45.3639 19.12 43.7639 16.36 41.4439 14.52C39.1239 12.68 35.8839 11.76 31.7239 11.76C25.4039 11.76 20.6839 14.2 17.5639 19.08C14.4439 23.88 12.8039 31.88 12.6439 43.08C14.7239 39.56 17.7639 36.84 21.7639 34.92C25.7639 33 30.0839 32.04 34.7239 32.04C40.0039 32.04 44.6439 33.2 48.6439 35.52C52.7239 37.76 55.8839 41.04 58.1239 45.36C60.4439 49.68 61.6039 54.84 61.6039 60.84C61.6039 66.44 60.4839 71.44 58.2439 75.84C56.0839 80.24 52.8439 83.72 48.5239 86.28C44.2039 88.76 39.0039 90 32.9239 90C24.6839 90 18.2039 88.2 13.4839 84.6C8.84391 80.92 5.56391 75.76 3.64391 69.12C1.80391 62.48 0.883906 54.2 0.883906 44.28C0.883906 15 11.2039 0.359995 31.8439 0.359995C39.8439 0.359995 46.1239 2.52 50.6839 6.84C55.3239 11.16 58.0439 16.48 58.8439 22.8H46.2439ZM31.7239 43.56C26.8439 43.56 22.6839 45.04 19.2439 48C15.8839 50.88 14.2039 55.08 14.2039 60.6C14.2039 66.12 15.7639 70.52 18.8839 73.8C22.0839 77 26.5239 78.6 32.2039 78.6C37.2439 78.6 41.2039 77.04 44.0839 73.92C47.0439 70.8 48.5239 66.64 48.5239 61.44C48.5239 56 47.0839 51.68 44.2039 48.48C41.4039 45.2 37.2439 43.56 31.7239 43.56Z" fill="#E0E0E0"/>
</svg>
